<svg width="21" height="17" viewBox="0 0 21 17" fill="none" xmlns="http://www.w3.org/2000/svg">
<path fill-rule="evenodd" clip-rule="evenodd" d="M17.7778 2H3C2.44772 2 2 2.44772 2 3V14C2 14.5523 2.44772 15 3 15H17.7778C18.3301 15 18.7778 14.5523 18.7778 14V3C18.7778 2.44772 18.3301 2 17.7778 2ZM3 0C1.34315 0 0 1.34315 0 3V14C0 15.6569 1.34315 17 3 17H17.7778C19.4346 17 20.7778 15.6569 20.7778 14V3C20.7778 1.34315 19.4346 0 17.7778 0H3ZM4 7C4 5.34315 5.34315 4 7 4H8.77778C9.33006 4 9.77778 4.44772 9.77778 5C9.77778 5.55228 9.33006 6 8.77778 6H7C6.44771 6 6 6.44771 6 7V8.77778C6 9.33006 5.55228 9.77778 5 9.77778C4.44772 9.77778 4 9.33006 4 8.77778V7ZM13.7778 12.7778C15.4346 12.7778 16.7778 11.4346 16.7778 9.77778V8C16.7778 7.44772 16.3301 7 15.7778 7C15.2255 7 14.7778 7.44772 14.7778 8V9.77778C14.7778 10.3301 14.3301 10.7778 13.7778 10.7778H12C11.4477 10.7778 11 11.2255 11 11.7778C11 12.3301 11.4477 12.7778 12 12.7778H13.7778Z" fill="#1F1F1F"/>
</svg>
